<svg width="233" height="31" viewBox="0 0 233 31" fill="none" xmlns="http://www.w3.org/2000/svg">
<path d="M13.9432 7.125C13.8371 6.13258 13.3902 5.35985 12.6023 4.80682C11.822 4.25379 10.8068 3.97727 9.55682 3.97727C8.67803 3.97727 7.92424 4.10985 7.29545 4.375C6.66667 4.64015 6.18561 5 5.85227 5.45454C5.51894 5.90909 5.34849 6.42803 5.34091 7.01136C5.34091 7.49621 5.45076 7.91667 5.67045 8.27273C5.89773 8.62879 6.20455 8.93182 6.59091 9.18182C6.97727 9.42424 7.4053 9.62879 7.875 9.79545C8.3447 9.96212 8.81818 10.1023 9.29545 10.2159L11.4773 10.7614C12.3561 10.9659 13.2008 11.2424 14.0114 11.5909C14.8295 11.9394 15.5606 12.3788 16.2045 12.9091C16.8561 13.4394 17.3712 14.0795 17.75 14.8295C18.1288 15.5795 18.3182 16.4583 18.3182 17.4659C18.3182 18.8295 17.9697 20.0303 17.2727 21.0682C16.5758 22.0985 15.5682 22.9053 14.25 23.4886C12.9394 24.0644 11.3523 24.3523 9.48864 24.3523C7.67803 24.3523 6.10606 24.072 4.77273 23.5114C3.44697 22.9508 2.40909 22.1326 1.65909 21.0568C0.916667 19.9811 0.515152 18.6705 0.454545 17.125H4.60227C4.66288 17.9356 4.91288 18.6098 5.35227 19.1477C5.79167 19.6856 6.36364 20.0871 7.06818 20.3523C7.7803 20.6174 8.57576 20.75 9.45455 20.75C10.3712 20.75 11.1742 20.6136 11.8636 20.3409C12.5606 20.0606 13.1061 19.6742 13.5 19.1818C13.8939 18.6818 14.0947 18.0985 14.1023 17.4318C14.0947 16.8258 13.9167 16.3258 13.5682 15.9318C13.2197 15.5303 12.7311 15.197 12.1023 14.9318C11.4811 14.6591 10.7538 14.4167 9.92045 14.2045L7.27273 13.5227C5.35606 13.0303 3.84091 12.2841 2.72727 11.2841C1.62121 10.2765 1.06818 8.93939 1.06818 7.27273C1.06818 5.90151 1.43939 4.70076 2.18182 3.67045C2.93182 2.64015 3.95076 1.84091 5.23864 1.27273C6.52652 0.696969 7.98485 0.40909 9.61364 0.40909C11.2652 0.40909 12.7121 0.696969 13.9545 1.27273C15.2045 1.84091 16.1856 2.63258 16.8977 3.64773C17.6098 4.6553 17.9773 5.81439 18 7.125H13.9432ZM28.8685 24.3409C27.164 24.3409 25.6867 23.9659 24.4367 23.2159C23.1867 22.4659 22.217 21.4167 21.5276 20.0682C20.8458 18.7197 20.5049 17.1439 20.5049 15.3409C20.5049 13.5379 20.8458 11.9583 21.5276 10.6023C22.217 9.24621 23.1867 8.19318 24.4367 7.44318C25.6867 6.69318 27.164 6.31818 28.8685 6.31818C30.5731 6.31818 32.0503 6.69318 33.3003 7.44318C34.5503 8.19318 35.5163 9.24621 36.1981 10.6023C36.8875 11.9583 37.2322 13.5379 37.2322 15.3409C37.2322 17.1439 36.8875 18.7197 36.1981 20.0682C35.5163 21.4167 34.5503 22.4659 33.3003 23.2159C32.0503 23.9659 30.5731 24.3409 28.8685 24.3409ZM28.8913 21.0455C29.8155 21.0455 30.5882 20.7917 31.2094 20.2841C31.8306 19.7689 32.2928 19.0795 32.5958 18.2159C32.9064 17.3523 33.0617 16.3902 33.0617 15.3295C33.0617 14.2614 32.9064 13.2955 32.5958 12.4318C32.2928 11.5606 31.8306 10.8674 31.2094 10.3523C30.5882 9.83712 29.8155 9.57955 28.8913 9.57955C27.9443 9.57955 27.1564 9.83712 26.5276 10.3523C25.9064 10.8674 25.4405 11.5606 25.1299 12.4318C24.8269 13.2955 24.6753 14.2614 24.6753 15.3295C24.6753 16.3902 24.8269 17.3523 25.1299 18.2159C25.4405 19.0795 25.9064 19.7689 26.5276 20.2841C27.1564 20.7917 27.9443 21.0455 28.8913 21.0455ZM40.0836 24V6.54545H44.0723V9.45455H44.2541C44.5723 8.44697 45.1177 7.67045 45.8905 7.125C46.6708 6.57197 47.5609 6.29545 48.5609 6.29545C48.7882 6.29545 49.042 6.30682 49.3223 6.32954C49.6102 6.3447 49.8488 6.37121 50.0382 6.40909V10.1932C49.8639 10.1326 49.5874 10.0795 49.2086 10.0341C48.8374 9.98106 48.4776 9.95455 48.1291 9.95455C47.3791 9.95455 46.7048 10.1174 46.1064 10.4432C45.5155 10.7614 45.0495 11.2045 44.7086 11.7727C44.3677 12.3409 44.1973 12.9962 44.1973 13.7386V24H40.0836ZM61.7845 6.54545V9.72727H51.7505V6.54545H61.7845ZM54.2277 2.36364H58.3414V18.75C58.3414 19.303 58.4247 19.7273 58.5914 20.0227C58.7656 20.3106 58.9929 20.5076 59.2732 20.6136C59.5535 20.7197 59.8641 20.7727 60.205 20.7727C60.4626 20.7727 60.6974 20.7538 60.9095 20.7159C61.1292 20.678 61.2959 20.6439 61.4095 20.6136L62.1027 23.8295C61.883 23.9053 61.5686 23.9886 61.1595 24.0795C60.758 24.1705 60.2656 24.2235 59.6823 24.2386C58.652 24.2689 57.7239 24.1136 56.8982 23.7727C56.0724 23.4242 55.4171 22.8864 54.9323 22.1591C54.455 21.4318 54.2202 20.5227 54.2277 19.4318V2.36364ZM72.1247 24.3409C70.3747 24.3409 68.8633 23.9773 67.5906 23.25C66.3254 22.5152 65.3519 21.4773 64.6701 20.1364C63.9883 18.7879 63.6474 17.2008 63.6474 15.375C63.6474 13.5795 63.9883 12.0038 64.6701 10.6477C65.3595 9.28409 66.3216 8.22348 67.5565 7.46591C68.7913 6.70076 70.2421 6.31818 71.9087 6.31818C72.9845 6.31818 73.9997 6.49242 74.9542 6.84091C75.9163 7.18182 76.7648 7.71212 77.4997 8.43182C78.2421 9.15151 78.8254 10.0682 79.2497 11.1818C79.6739 12.2879 79.886 13.6061 79.886 15.1364V16.3977H65.5792V13.625H75.9428C75.9353 12.8371 75.7648 12.1364 75.4315 11.5227C75.0981 10.9015 74.6322 10.4129 74.0337 10.0568C73.4428 9.70076 72.7534 9.52273 71.9656 9.52273C71.1247 9.52273 70.386 9.72727 69.7497 10.1364C69.1133 10.5379 68.6171 11.0682 68.261 11.7273C67.9125 12.3788 67.7345 13.0947 67.7269 13.875V16.2955C67.7269 17.3106 67.9125 18.1818 68.2837 18.9091C68.655 19.6288 69.1739 20.1818 69.8406 20.5682C70.5072 20.947 71.2875 21.1364 72.1815 21.1364C72.78 21.1364 73.3216 21.053 73.8065 20.8864C74.2913 20.7121 74.7118 20.4583 75.0678 20.125C75.4239 19.7917 75.6928 19.3788 75.8747 18.8864L79.7156 19.3182C79.4731 20.3333 79.011 21.2197 78.3292 21.9773C77.655 22.7273 76.7913 23.3106 75.7383 23.7273C74.6853 24.1364 73.4807 24.3409 72.1247 24.3409ZM87.7489 24.3523C86.6428 24.3523 85.6466 24.1553 84.7602 23.7614C83.8814 23.3598 83.1845 22.7689 82.6693 21.9886C82.1617 21.2083 81.908 20.2462 81.908 19.1023C81.908 18.1174 82.0898 17.303 82.4534 16.6591C82.817 16.0152 83.3133 15.5 83.942 15.1136C84.5708 14.7273 85.2792 14.4356 86.067 14.2386C86.8625 14.0341 87.6845 13.8864 88.533 13.7955C89.5557 13.6894 90.3852 13.5947 91.0216 13.5114C91.658 13.4205 92.1201 13.2841 92.408 13.1023C92.7034 12.9129 92.8511 12.6212 92.8511 12.2273V12.1591C92.8511 11.303 92.5974 10.6402 92.0898 10.1705C91.5822 9.70076 90.8511 9.46591 89.8966 9.46591C88.889 9.46591 88.0898 9.68561 87.4989 10.125C86.9155 10.5644 86.5216 11.0833 86.317 11.6818L82.4761 11.1364C82.7792 10.0758 83.2792 9.18939 83.9761 8.47727C84.6731 7.75757 85.5254 7.2197 86.533 6.86364C87.5405 6.5 88.6542 6.31818 89.8739 6.31818C90.7148 6.31818 91.5519 6.41667 92.3852 6.61364C93.2186 6.81061 93.9799 7.13636 94.6693 7.59091C95.3587 8.03788 95.9117 8.64773 96.3284 9.42045C96.7527 10.1932 96.9648 11.1591 96.9648 12.3182V24H93.0102V21.6023H92.8739C92.6239 22.0871 92.2716 22.5417 91.817 22.9659C91.3701 23.3826 90.8057 23.7197 90.1239 23.9773C89.4496 24.2273 88.658 24.3523 87.7489 24.3523ZM88.817 21.3295C89.6428 21.3295 90.3587 21.1667 90.9648 20.8409C91.5708 20.5076 92.0367 20.0682 92.3625 19.5227C92.6958 18.9773 92.8625 18.3826 92.8625 17.7386V15.6818C92.7337 15.7879 92.514 15.8864 92.2034 15.9773C91.9004 16.0682 91.5595 16.1477 91.1807 16.2159C90.8019 16.2841 90.4269 16.3447 90.0557 16.3977C89.6845 16.4508 89.3625 16.4962 89.0898 16.5341C88.4761 16.6174 87.9269 16.7538 87.442 16.9432C86.9572 17.1326 86.5746 17.3977 86.2943 17.7386C86.014 18.072 85.8739 18.5038 85.8739 19.0341C85.8739 19.7917 86.1504 20.3636 86.7034 20.75C87.2564 21.1364 87.961 21.3295 88.817 21.3295ZM106.938 24.3068C105.567 24.3068 104.34 23.9545 103.257 23.25C102.173 22.5455 101.317 21.5227 100.688 20.1818C100.06 18.8409 99.7452 17.2121 99.7452 15.2955C99.7452 13.3561 100.063 11.7197 100.7 10.3864C101.344 9.04545 102.211 8.03409 103.302 7.35227C104.393 6.66288 105.609 6.31818 106.95 6.31818C107.973 6.31818 108.813 6.49242 109.473 6.84091C110.132 7.18182 110.654 7.5947 111.041 8.07955C111.427 8.55682 111.726 9.00758 111.938 9.43182H112.109V0.727272H116.234V24H112.188V21.25H111.938C111.726 21.6742 111.419 22.125 111.018 22.6023C110.616 23.072 110.086 23.4735 109.427 23.8068C108.768 24.1402 107.938 24.3068 106.938 24.3068ZM108.086 20.9318C108.957 20.9318 109.7 20.697 110.313 20.2273C110.927 19.75 111.393 19.0871 111.711 18.2386C112.029 17.3902 112.188 16.4015 112.188 15.2727C112.188 14.1439 112.029 13.1629 111.711 12.3295C111.401 11.4962 110.938 10.8485 110.325 10.3864C109.719 9.92424 108.973 9.69318 108.086 9.69318C107.169 9.69318 106.404 9.93182 105.791 10.4091C105.177 10.8864 104.715 11.5455 104.404 12.3864C104.094 13.2273 103.938 14.1894 103.938 15.2727C103.938 16.3636 104.094 17.3371 104.404 18.1932C104.723 19.0417 105.188 19.7121 105.802 20.2045C106.423 20.6894 107.185 20.9318 108.086 20.9318ZM127.591 24.3409C125.886 24.3409 124.409 23.9659 123.159 23.2159C121.909 22.4659 120.94 21.4167 120.25 20.0682C119.568 18.7197 119.227 17.1439 119.227 15.3409C119.227 13.5379 119.568 11.9583 120.25 10.6023C120.94 9.24621 121.909 8.19318 123.159 7.44318C124.409 6.69318 125.886 6.31818 127.591 6.31818C129.296 6.31818 130.773 6.69318 132.023 7.44318C133.273 8.19318 134.239 9.24621 134.921 10.6023C135.61 11.9583 135.955 13.5379 135.955 15.3409C135.955 17.1439 135.61 18.7197 134.921 20.0682C134.239 21.4167 133.273 22.4659 132.023 23.2159C130.773 23.9659 129.296 24.3409 127.591 24.3409ZM127.614 21.0455C128.538 21.0455 129.311 20.7917 129.932 20.2841C130.553 19.7689 131.015 19.0795 131.318 18.2159C131.629 17.3523 131.784 16.3902 131.784 15.3295C131.784 14.2614 131.629 13.2955 131.318 12.4318C131.015 11.5606 130.553 10.8674 129.932 10.3523C129.311 9.83712 128.538 9.57955 127.614 9.57955C126.667 9.57955 125.879 9.83712 125.25 10.3523C124.629 10.8674 124.163 11.5606 123.852 12.4318C123.549 13.2955 123.398 14.2614 123.398 15.3295C123.398 16.3902 123.549 17.3523 123.852 18.2159C124.163 19.0795 124.629 19.7689 125.25 20.2841C125.879 20.7917 126.667 21.0455 127.614 21.0455ZM138.806 24V6.54545H142.795V9.45455H142.977C143.295 8.44697 143.84 7.67045 144.613 7.125C145.393 6.57197 146.283 6.29545 147.283 6.29545C147.511 6.29545 147.764 6.30682 148.045 6.32954C148.333 6.3447 148.571 6.37121 148.761 6.40909V10.1932C148.586 10.1326 148.31 10.0795 147.931 10.0341C147.56 9.98106 147.2 9.95455 146.852 9.95455C146.102 9.95455 145.427 10.1174 144.829 10.4432C144.238 10.7614 143.772 11.2045 143.431 11.7727C143.09 12.3409 142.92 12.9962 142.92 13.7386V24H138.806ZM152.743 24H148.243L156.436 0.727272H161.641L169.845 24H165.345L159.129 5.5H158.947L152.743 24ZM152.891 14.875H165.163V18.2614H152.891V14.875ZM176.202 0.727272V24H172.089V0.727272H176.202ZM179.792 30.5455V6.54545H183.838V9.43182H184.076C184.289 9.00758 184.588 8.55682 184.974 8.07955C185.361 7.5947 185.883 7.18182 186.542 6.84091C187.201 6.49242 188.042 6.31818 189.065 6.31818C190.414 6.31818 191.63 6.66288 192.713 7.35227C193.804 8.03409 194.667 9.04545 195.304 10.3864C195.948 11.7197 196.27 13.3561 196.27 15.2955C196.27 17.2121 195.955 18.8409 195.326 20.1818C194.698 21.5227 193.842 22.5455 192.758 23.25C191.675 23.9545 190.448 24.3068 189.076 24.3068C188.076 24.3068 187.247 24.1402 186.588 23.8068C185.929 23.4735 185.398 23.072 184.997 22.6023C184.603 22.125 184.296 21.6742 184.076 21.25H183.906V30.5455H179.792ZM183.826 15.2727C183.826 16.4015 183.986 17.3902 184.304 18.2386C184.63 19.0871 185.095 19.75 185.701 20.2273C186.315 20.697 187.058 20.9318 187.929 20.9318C188.838 20.9318 189.599 20.6894 190.213 20.2045C190.826 19.7121 191.289 19.0417 191.599 18.1932C191.917 17.3371 192.076 16.3636 192.076 15.2727C192.076 14.1894 191.921 13.2273 191.611 12.3864C191.3 11.5455 190.838 10.8864 190.224 10.4091C189.611 9.93182 188.845 9.69318 187.929 9.69318C187.05 9.69318 186.304 9.92424 185.69 10.3864C185.076 10.8485 184.611 11.4962 184.292 12.3295C183.982 13.1629 183.826 14.1439 183.826 15.2727ZM203.266 13.7727V24H199.152V0.727272H203.175V9.51136H203.38C203.789 8.52651 204.421 7.75 205.277 7.18182C206.141 6.60606 207.24 6.31818 208.573 6.31818C209.785 6.31818 210.842 6.57197 211.743 7.07954C212.645 7.58712 213.342 8.32954 213.834 9.30682C214.334 10.2841 214.584 11.4773 214.584 12.8864V24H210.471V13.5227C210.471 12.3485 210.168 11.4356 209.561 10.7841C208.963 10.125 208.122 9.79545 207.039 9.79545C206.311 9.79545 205.66 9.95455 205.084 10.2727C204.516 10.5833 204.069 11.0341 203.743 11.625C203.425 12.2159 203.266 12.9318 203.266 13.7727ZM223.16 24.3523C222.054 24.3523 221.058 24.1553 220.171 23.7614C219.293 23.3598 218.596 22.7689 218.081 21.9886C217.573 21.2083 217.319 20.2462 217.319 19.1023C217.319 18.1174 217.501 17.303 217.865 16.6591C218.228 16.0152 218.725 15.5 219.353 15.1136C219.982 14.7273 220.69 14.4356 221.478 14.2386C222.274 14.0341 223.096 13.8864 223.944 13.7955C224.967 13.6894 225.796 13.5947 226.433 13.5114C227.069 13.4205 227.531 13.2841 227.819 13.1023C228.115 12.9129 228.262 12.6212 228.262 12.2273V12.1591C228.262 11.303 228.009 10.6402 227.501 10.1705C226.993 9.70076 226.262 9.46591 225.308 9.46591C224.3 9.46591 223.501 9.68561 222.91 10.125C222.327 10.5644 221.933 11.0833 221.728 11.6818L217.887 11.1364C218.19 10.0758 218.69 9.18939 219.387 8.47727C220.084 7.75757 220.937 7.2197 221.944 6.86364C222.952 6.5 224.065 6.31818 225.285 6.31818C226.126 6.31818 226.963 6.41667 227.796 6.61364C228.63 6.81061 229.391 7.13636 230.081 7.59091C230.77 8.03788 231.323 8.64773 231.74 9.42045C232.164 10.1932 232.376 11.1591 232.376 12.3182V24H228.421V21.6023H228.285C228.035 22.0871 227.683 22.5417 227.228 22.9659C226.781 23.3826 226.217 23.7197 225.535 23.9773C224.861 24.2273 224.069 24.3523 223.16 24.3523ZM224.228 21.3295C225.054 21.3295 225.77 21.1667 226.376 20.8409C226.982 20.5076 227.448 20.0682 227.774 19.5227C228.107 18.9773 228.274 18.3826 228.274 17.7386V15.6818C228.145 15.7879 227.925 15.8864 227.615 15.9773C227.312 16.0682 226.971 16.1477 226.592 16.2159C226.213 16.2841 225.838 16.3447 225.467 16.3977C225.096 16.4508 224.774 16.4962 224.501 16.5341C223.887 16.6174 223.338 16.7538 222.853 16.9432C222.368 17.1326 221.986 17.3977 221.706 17.7386C221.425 18.072 221.285 18.5038 221.285 19.0341C221.285 19.7917 221.562 20.3636 222.115 20.75C222.668 21.1364 223.372 21.3295 224.228 21.3295Z" fill="#FAFAFA"/>
</svg>
